<svg width="258" height="252" viewBox="0 0 258 252" fill="none" xmlns="http://www.w3.org/2000/svg">
<path fill-rule="evenodd" clip-rule="evenodd" d="M81.1718 94.6043L79.7015 90.278C79.0045 88.2272 80.625 86.1006 82.7682 86.2536L82.7909 86.2552L25.4268 47.881L81.1718 94.6043ZM67.8238 117.204C68.0989 116.584 68.5828 116.046 69.2587 115.712L73.8259 113.457C75.4695 112.645 76.0357 110.554 75.0227 109.036L72.1729 104.766C70.9779 102.975 72.0029 100.508 74.1149 100.092L79.0682 99.1158C80.1798 98.8967 81.0182 98.0904 81.3547 97.0951C80.3172 97.2871 79.2032 97.2734 78.049 97.0046L42.3592 88.6922C32.89 86.4868 28.4255 99.898 37.3272 103.808L67.8238 117.204ZM71.5453 129.407L72.4013 128.656C73.7825 127.444 73.7962 125.288 72.4304 124.092L69.6785 121.683L0.951904 125.016L71.5453 129.407ZM80.9619 155.142C80.5646 154.356 79.8271 153.753 78.8865 153.575L73.875 152.627C71.7767 152.23 70.7889 149.785 71.9987 147.984L74.888 143.681C75.9141 142.153 75.3763 140.075 73.7492 139.282L69.1523 137.041C68.3496 136.65 67.8259 135.962 67.6071 135.19L37.3272 148.491C28.4255 152.402 32.89 165.813 42.3592 163.607L78.049 155.295C79.0588 155.06 80.0379 155.02 80.9619 155.142ZM80.9525 166.145C79.6367 165.533 78.8768 163.968 79.4111 162.427L81.1157 157.511C81.2355 157.165 81.29 156.815 81.2865 156.473L25.5455 202.488L80.9525 166.145ZM103.609 181.946L102.882 177.975C102.551 176.168 100.708 175.099 98.9861 175.717L94.201 177.432C92.173 178.159 90.0978 176.556 90.2642 174.391L90.6625 169.208C90.8035 167.372 89.3058 165.857 87.4932 166.001L87.3148 166.016C87.1668 166.383 86.9888 166.748 86.779 167.109L68.35 198.794C63.4493 207.219 75.0185 215.423 81.3487 208.011L103.609 181.946ZM115.75 181.911C114.801 181.367 113.576 181.371 112.587 182.058L108.41 184.957C107.889 185.319 107.312 185.49 106.748 185.496L89.8135 250.704L115.75 181.911ZM140.581 186.795L140.13 187.739C139.188 189.711 136.568 190.078 135.175 188.433L131.895 184.559C130.714 183.163 128.568 183.178 127.37 184.589L124.076 188.471C122.666 190.133 120.053 189.803 119.131 187.848L118.586 186.693L121.619 220.865C122.483 230.589 136.694 230.589 137.557 220.865L140.581 186.795ZM152.031 185.259C151.626 185.191 151.225 185.035 150.854 184.779L146.71 181.919C145.59 181.147 144.15 181.27 143.158 182.077L169.208 251.249L152.031 185.259ZM171.725 165.652C170.008 165.662 168.614 167.153 168.736 168.918L169.089 174.034C169.239 176.207 167.133 177.847 165.107 177.135L160.375 175.472C158.654 174.867 156.787 175.966 156.439 177.789L155.632 182.023L177.828 208.011C184.158 215.423 195.727 207.219 190.826 198.794L172.397 167.109C172.119 166.629 171.896 166.142 171.725 165.652ZM178.693 158.057L180.03 161.993C180.727 164.043 179.107 166.17 176.963 166.017L176.728 166L233.403 203.913L178.693 158.057ZM191.797 135.291C191.511 135.815 191.066 136.266 190.473 136.559L185.906 138.814C184.262 139.625 183.696 141.717 184.709 143.235L187.559 147.505C188.754 149.296 187.729 151.762 185.617 152.179L180.663 153.155C179.572 153.37 178.745 154.15 178.396 155.12C179.266 155.026 180.183 155.075 181.127 155.295L216.817 163.607C226.286 165.813 230.751 152.402 221.849 148.491L191.797 135.291ZM188.634 122.471L187.33 123.614C185.949 124.826 185.935 126.983 187.301 128.179L189.49 130.095L257.878 126.778L188.634 122.471ZM178.814 97.2133C179.221 97.9576 179.939 98.5239 180.845 98.6954L185.857 99.6439C187.955 100.041 188.943 102.485 187.733 104.287L184.844 108.59C183.818 110.118 184.355 112.195 185.982 112.988L190.579 115.229C191.316 115.588 191.818 116.197 192.064 116.892L221.849 103.808C230.751 99.8979 226.286 86.4868 216.817 88.6922L181.127 97.0046C180.333 97.1895 179.558 97.2537 178.814 97.2133ZM177.561 85.8563C179.568 85.8606 181.004 87.8715 180.32 89.8435L178.774 94.3053L233.284 49.3066L177.561 85.8563ZM156.029 69.8127L156.849 74.2956C157.18 76.1031 159.023 77.1716 160.745 76.5541L165.531 74.8385C167.559 74.1114 169.634 75.7145 169.467 77.8797L169.069 83.0629C168.938 84.7704 170.225 86.2009 171.865 86.2757C172.012 85.911 172.189 85.5487 172.397 85.1909L190.826 53.5059C195.727 45.0802 184.158 36.8762 177.828 44.2883L156.029 69.8127ZM143.164 69.6618C144.109 70.8338 145.835 71.1229 147.145 70.2129L151.321 67.3133C151.508 67.1834 151.702 67.0783 151.9 66.9965L169.016 1.08999L143.164 69.6618ZM118.471 66.8988L119.602 64.5317C120.543 62.5598 123.164 62.1926 124.557 63.8376L127.836 67.7114C129.018 69.1072 131.164 69.093 132.361 67.6815L135.656 63.7996C137 62.2151 139.439 62.4411 140.462 64.1613L137.557 31.4343C136.694 21.7107 122.483 21.7107 121.62 31.4343L118.479 66.8221C118.476 66.8477 118.474 66.8733 118.471 66.8988ZM87.4296 86.5863C87.2619 86.1168 87.0462 85.6502 86.7791 85.1909L68.35 53.5059C63.4493 45.0802 75.0185 36.8762 81.3487 44.2883L103.994 70.8032L103.292 74.4821C102.945 76.3042 101.078 77.4032 99.3567 76.7985L94.625 75.1359C92.5988 74.4239 90.4923 76.0638 90.6424 78.2363L90.9958 83.3525C91.1231 85.196 89.5962 86.741 87.7754 86.611L87.4296 86.5863ZM106.916 66.9873L89.6215 0.545471L115.991 70.5658C115.067 71.0158 113.938 70.9831 113.022 70.3513L108.877 67.4915C108.267 67.0706 107.576 66.9183 106.916 66.9873Z" fill="#FC972F"/>
<path d="M111.837 87.604C112.113 86.1788 113.738 85.4889 114.916 86.2968L117.883 88.3313C118.883 89.0169 120.262 88.6348 120.797 87.5241L122.383 84.2278C123.013 82.9189 124.753 82.6761 125.681 83.7678L128.017 86.5171C128.805 87.4435 130.23 87.4345 131.029 86.4981L133.398 83.7193C134.339 82.6159 136.077 82.8368 136.691 84.1379L138.238 87.4145C138.759 88.5186 140.133 88.8834 141.141 88.1852L144.133 86.1132C145.321 85.2904 146.938 85.96 147.197 87.3818L147.848 90.9624C148.067 92.169 149.297 92.8827 150.446 92.4703L153.856 91.2463C155.21 90.7603 156.596 91.8328 156.481 93.2784L156.192 96.9191C156.095 98.1458 157.097 99.1599 158.308 99.0613L161.904 98.7688C163.332 98.6526 164.392 100.055 163.912 101.426L162.703 104.879C162.296 106.042 163.001 107.287 164.193 107.509L167.729 108.168C169.134 108.43 169.795 110.066 168.983 111.269L166.936 114.298C166.247 115.319 166.607 116.711 167.698 117.238L170.934 118.803C172.22 119.425 172.438 121.184 171.348 122.137L168.603 124.537C167.679 125.345 167.67 126.788 168.585 127.585L171.301 129.95C172.379 130.889 172.139 132.652 170.847 133.29L167.591 134.896C166.494 135.437 166.116 136.833 166.794 137.845L168.804 140.849C169.602 142.042 168.92 143.687 167.513 143.966L163.968 144.669C162.773 144.906 162.053 146.161 162.446 147.319L163.613 150.757C164.076 152.122 163 153.537 161.573 153.439L157.981 153.192C156.77 153.108 155.756 154.135 155.838 155.361L156.083 158.998C156.18 160.442 154.782 161.532 153.433 161.063L150.038 159.882C148.894 159.484 147.655 160.213 147.421 161.423L146.727 165.012C146.451 166.437 144.826 167.127 143.648 166.319L140.681 164.284C139.681 163.599 138.302 163.981 137.767 165.092L136.181 168.388C135.551 169.697 133.811 169.94 132.883 168.848L130.547 166.099C129.759 165.172 128.334 165.181 127.535 166.118L125.166 168.896C124.225 170 122.487 169.779 121.873 168.478L120.326 165.201C119.805 164.097 118.431 163.732 117.423 164.431L114.431 166.503C113.243 167.325 111.626 166.656 111.367 165.234L110.716 161.653C110.497 160.447 109.267 159.733 108.118 160.146L104.708 161.37C103.354 161.856 101.968 160.783 102.083 159.337L102.372 155.697C102.469 154.47 101.467 153.456 100.256 153.555L96.6596 153.847C95.2317 153.963 94.1722 152.561 94.6522 151.19L95.8609 147.737C96.2682 146.574 95.5631 145.329 94.3713 145.107L90.8346 144.448C89.4302 144.186 88.7688 142.55 89.5813 141.347L91.6277 138.317C92.3173 137.297 91.9568 135.905 90.8662 135.378L87.6297 133.812C86.3445 133.191 86.1262 131.431 87.216 130.479L89.9606 128.079C90.8854 127.271 90.8941 125.828 89.979 125.031L87.2633 122.666C86.1849 121.726 86.4246 119.964 87.7174 119.326L90.9731 117.72C92.0702 117.179 92.4475 115.783 91.7703 114.771L89.7605 111.767C88.9624 110.574 89.6437 108.929 91.0514 108.65L94.5963 107.946C95.7909 107.709 96.5111 106.455 96.1179 105.297L94.9509 101.859C94.4875 100.494 95.564 99.0784 96.9907 99.1766L100.583 99.424C101.794 99.5074 102.808 98.4807 102.726 97.255L102.481 93.6177C102.384 92.1734 103.782 91.0834 105.131 91.5525L108.526 92.7337C109.67 93.1317 110.909 92.4024 111.143 91.193L111.837 87.604Z" fill="#FC972F"/>
</svg>
