<svg width="260" height="260" viewBox="0 0 260 260" fill="none" xmlns="http://www.w3.org/2000/svg">
<path fill-rule="evenodd" clip-rule="evenodd" d="M114.633 12.3985C118.452 -4.13283 141.993 -4.13282 145.812 12.3985L153.057 43.7599L175.178 20.045C186.751 7.63803 207.138 19.4083 202.18 35.6344L192.489 67.3489L224.204 57.6579C240.43 52.6997 252.2 73.0864 239.793 84.6595L216.078 106.781L247.439 114.026C263.971 117.845 263.971 141.386 247.439 145.205L215.556 152.571L239.793 175.178C252.2 186.751 240.43 207.138 224.204 202.18L192.694 192.552L202.18 223.596C207.138 239.823 186.752 251.593 175.178 239.186L153.17 215.591L145.812 247.439C141.993 263.971 118.452 263.971 114.633 247.439L107.155 215.069L84.6595 239.186C73.0864 251.593 52.6997 239.823 57.6579 223.596L67.0817 192.756L36.2416 202.18C20.0155 207.138 8.24529 186.752 20.6523 175.178L44.7684 152.683L12.3985 145.205C-4.13283 141.386 -4.13282 117.845 12.3985 114.026L44.2468 106.668L20.6522 84.6595C8.24528 73.0864 20.0155 52.6997 36.2416 57.6579L67.2863 67.1442L57.6579 35.6344C52.6997 19.4083 73.0864 7.63803 84.6595 20.045L107.267 44.2819L114.633 12.3985ZM85.6018 77.4108C80.2912 74.3609 74.3608 80.2913 77.4107 85.6019L84.3217 97.6356C86.6158 101.63 83.739 106.613 79.1324 106.624L65.2554 106.655C59.1314 106.669 56.9607 114.771 62.2573 117.845L74.2592 124.811C78.2433 127.123 78.2433 132.877 74.2592 135.189L62.2573 142.155C56.9607 145.229 59.1314 153.331 65.2554 153.345L79.1324 153.376C83.739 153.387 86.6158 158.37 84.3217 162.364L77.4107 174.398C74.3608 179.709 80.2912 185.639 85.6018 182.589L97.6355 175.678C101.63 173.384 106.613 176.261 106.624 180.868L106.655 194.744C106.669 200.869 114.77 203.039 117.845 197.743L124.811 185.741C127.123 181.757 132.877 181.757 135.189 185.741L142.155 197.743C145.229 203.039 153.33 200.869 153.344 194.744L153.376 180.868C153.387 176.261 158.37 173.384 162.364 175.678L174.398 182.589C179.709 185.639 185.639 179.709 182.589 174.398L175.678 162.364C173.384 158.37 176.261 153.387 180.867 153.376L194.744 153.345C200.868 153.331 203.039 145.229 197.743 142.155L185.741 135.189C181.757 132.877 181.757 127.123 185.741 124.811L197.743 117.845C203.039 114.771 200.868 106.669 194.744 106.655L180.867 106.624C176.261 106.613 173.384 101.63 175.678 97.6356L182.589 85.6019C185.639 80.2913 179.709 74.3609 174.398 77.4108L162.364 84.3218C158.37 86.6159 153.387 83.7391 153.376 79.1325L153.344 65.2555C153.33 59.1315 145.229 56.9608 142.155 62.2574L135.189 74.2593C132.877 78.2434 127.123 78.2434 124.811 74.2593L117.845 62.2574C114.77 56.9608 106.669 59.1315 106.655 65.2555L106.624 79.1325C106.613 83.7391 101.63 86.6159 97.6355 84.3218L85.6018 77.4108Z" fill="#FE96DB"/>
</svg>
