<svg width="260" height="260" viewBox="0 0 260 260" fill="none" xmlns="http://www.w3.org/2000/svg">
<path fill-rule="evenodd" clip-rule="evenodd" d="M151.658 37.7033C146.407 14.9728 114.039 14.9728 108.787 37.7033L107.267 44.2819L102.375 39.0366C86.4617 21.977 58.43 38.1611 65.2475 60.472L67.2863 67.1442L61.0793 65.2475C38.7684 58.43 22.5843 86.4617 39.6438 102.375L44.2468 106.668L37.7033 108.18C14.9728 113.431 14.9727 145.8 37.7033 151.051L44.7684 152.683L39.6439 157.463C22.5843 173.376 38.7684 201.408 61.0792 194.59L67.0817 192.756L65.2475 198.759C58.43 221.07 86.4617 237.254 102.375 220.194L107.155 215.069L108.787 222.135C114.039 244.865 146.407 244.865 151.658 222.135L153.17 215.591L157.463 220.194C173.376 237.254 201.408 221.07 194.59 198.759L192.694 192.551L199.366 194.59C221.677 201.408 237.861 173.376 220.801 157.463L215.556 152.571L222.135 151.051C244.865 145.8 244.865 113.431 222.135 108.18L216.078 106.781L220.801 102.375C237.861 86.4617 221.677 58.43 199.366 65.2475L192.489 67.3489L194.59 60.472C201.408 38.1611 173.376 21.977 157.463 39.0366L153.057 43.7599L151.658 37.7033ZM153.057 43.7599L146.007 51.3187C137.308 60.6436 122.53 60.6436 113.831 51.3187L107.267 44.2819L105.007 54.0683C102.136 66.4929 89.3374 73.8823 77.1421 70.1558L67.2863 67.1442L70.1558 76.5348C73.8823 88.7301 66.4929 101.529 54.0683 104.399L44.2468 106.668L51.926 113.831C61.2509 122.53 61.2509 137.308 51.926 146.007L44.7684 152.683L54.0682 154.832C66.4929 157.702 73.8823 170.501 70.1558 182.696L67.0817 192.756L77.1421 189.682C89.3373 185.956 102.136 193.345 105.007 205.77L107.155 215.069L113.831 207.912C122.53 198.587 137.308 198.587 146.007 207.912L153.17 215.591L155.439 205.77C158.309 193.345 171.108 185.956 183.303 189.682L192.694 192.551L189.682 182.696C185.956 170.501 193.345 157.702 205.77 154.832L215.556 152.571L208.519 146.007C199.194 137.308 199.194 122.53 208.519 113.831L216.078 106.781L205.77 104.399C193.345 101.529 185.956 88.7301 189.682 76.5348L192.489 67.3489L183.303 70.1558C171.108 73.8823 158.309 66.4929 155.439 54.0683L153.057 43.7599Z" fill="#FDE781"/>
<circle cx="130.223" cy="129.919" r="90" fill="#FDE781"/>
</svg>
