<svg width="479" height="373" viewBox="0 0 479 373" fill="none" xmlns="http://www.w3.org/2000/svg">
<path fill-rule="evenodd" clip-rule="evenodd" d="M0 367.5C28 375.5 146.679 378.086 167.5 350C185.5 375.5 285 370 308 350C338 362.5 435.5 377.5 479 364V0H0V367.5ZM172.654 20.5186C117.821 9.51863 22.5542 11.7187 80.1542 108.519C56.6543 137.519 52.6544 178.519 80.1542 219.019C80.1542 231.473 75.8213 246.205 71.4737 260.988C57.4938 308.523 43.3625 356.572 172.654 331.019C204.654 343.519 276.654 342.519 300.154 331.019C316.326 331.019 331.7 332.813 345.601 334.434C401.326 340.936 433.37 344.674 398.154 219.019C417.154 195.519 423.654 157.019 398.154 108.519C398.996 105.752 400.663 101.872 402.649 97.2465C417.179 63.416 448.827 -10.2716 300.154 20.5186C256.654 11.5187 213.654 9.51868 172.654 20.5186Z" fill="#FC972F"/>
</svg>
