<svg width="426" height="393" viewBox="0 0 426 393" fill="none" xmlns="http://www.w3.org/2000/svg">
<path fill-rule="evenodd" clip-rule="evenodd" d="M133.985 9.02173C68.1851 -4.17736 -46.1352 -1.53746 22.985 114.614C-5.21495 149.412 -10.0148 198.609 22.985 247.205C22.985 262.149 17.7855 279.827 12.5683 297.565C-4.20754 354.603 -21.1651 412.258 133.985 381.596C172.386 396.595 258.786 395.395 286.986 381.596C306.392 381.596 324.841 383.748 341.522 385.694C408.392 393.495 446.845 397.981 404.586 247.205C427.386 219.007 435.186 172.81 404.586 114.614C405.596 111.295 407.596 106.639 409.98 101.089C427.416 60.495 465.394 -27.9239 286.986 9.02173C234.786 -1.7775 183.185 -4.1773 133.985 9.02173ZM147.654 39.5186C92.8207 28.5186 -2.44587 30.7187 55.1541 127.519C31.6542 156.519 27.6543 197.519 55.1541 238.019C55.1541 250.473 50.8212 265.205 46.4736 279.988C32.4937 327.523 18.3624 375.572 147.654 350.019C179.654 362.519 251.654 361.519 275.154 350.019C291.326 350.019 306.7 351.813 320.601 353.434C376.326 359.936 408.37 363.674 373.154 238.019C392.154 214.519 398.654 176.019 373.154 127.519C373.996 124.752 375.663 120.872 377.649 116.247C392.179 82.416 423.827 8.72844 275.154 39.5186C231.654 30.5186 188.654 28.5187 147.654 39.5186Z" fill="#FC972F"/>
</svg>
