<svg width="50" height="50" viewBox="0 0 50 50" fill="none" xmlns="http://www.w3.org/2000/svg">
<path fill-rule="evenodd" clip-rule="evenodd" d="M41.7832 6.47071C37.3466 2.44969 31.4594 0 25 0C18.6362 0 12.8278 2.37775 8.41467 6.29331L25.0911 22.9697L41.7832 6.47071ZM22.9574 25.0787L6.29333 8.41464C2.37781 12.8278 0 18.6362 0 25C0 31.3547 2.37097 37.1556 6.27649 41.5664L22.9574 25.0787ZM8.39575 43.6899L25.0787 27.2L41.5853 43.7067C37.1722 47.6222 31.3638 50 25 50C18.6271 50 12.8112 47.6154 8.39575 43.6899ZM27.2124 25.091L43.882 8.61437C47.693 13.0023 50 18.7318 50 25C50 31.3638 47.6222 37.1722 43.7067 41.5853L27.2124 25.091Z" fill="#FF5601"/>
</svg>
