<svg width="260" height="260" viewBox="0 0 260 260" fill="none" xmlns="http://www.w3.org/2000/svg">
<path fill-rule="evenodd" clip-rule="evenodd" d="M114.633 12.3985C118.452 -4.13283 141.993 -4.13282 145.812 12.3985L153.057 43.7599L175.178 20.045C186.751 7.63803 207.138 19.4083 202.18 35.6344L192.489 67.3489L224.204 57.6579C240.43 52.6997 252.2 73.0864 239.793 84.6595L216.078 106.781L247.439 114.026C263.971 117.845 263.971 141.386 247.439 145.205L215.556 152.571L239.793 175.178C252.2 186.751 240.43 207.138 224.204 202.18L192.694 192.552L202.18 223.596C207.138 239.823 186.752 251.593 175.178 239.186L153.17 215.591L145.812 247.439C141.993 263.971 118.452 263.971 114.633 247.439L107.155 215.069L84.6595 239.186C73.0864 251.593 52.6997 239.823 57.6579 223.596L67.0817 192.756L36.2416 202.18C20.0155 207.138 8.24529 186.752 20.6523 175.178L44.7684 152.683L12.3985 145.205C-4.13283 141.386 -4.13282 117.845 12.3985 114.026L44.2468 106.668L20.6522 84.6595C8.24528 73.0864 20.0155 52.6997 36.2416 57.6579L67.2863 67.1442L57.6579 35.6344C52.6997 19.4083 73.0864 7.63803 84.6595 20.045L107.267 44.2819L114.633 12.3985ZM136.302 34.0187C134.731 28.0571 126.269 28.0571 124.698 34.0187L117.784 60.2587C116.597 64.7633 110.953 66.256 107.694 62.9272L88.9775 43.8078C84.6788 39.4167 77.3421 43.5588 78.8812 49.5079L85.8092 76.2861C86.9631 80.7462 82.8682 84.7889 78.4232 83.5779L52.4782 76.5091C46.5892 74.9046 42.3444 82.0945 46.5942 86.4757L65.9503 106.43C69.1216 109.699 67.6368 115.171 63.2479 116.389L36.8351 123.718C30.9742 125.345 30.9742 133.655 36.8351 135.282L63.2479 142.611C67.6368 143.829 69.1216 149.301 65.9503 152.57L46.5942 172.524C42.3445 176.905 46.5892 184.095 52.4782 182.491L78.4232 175.422C82.8682 174.211 86.9631 178.254 85.8092 182.714L78.8812 209.492C77.3421 215.441 84.6788 219.583 88.9775 215.192L107.694 196.073C110.953 192.744 116.597 194.237 117.784 198.741L124.698 224.981C126.269 230.943 134.731 230.943 136.302 224.981L143.216 198.741C144.403 194.237 150.047 192.744 153.306 196.073L172.023 215.192C176.321 219.583 183.658 215.441 182.119 209.492L175.191 182.714C174.037 178.254 178.132 174.211 182.577 175.422L208.522 182.491C214.411 184.095 218.656 176.905 214.406 172.524L195.05 152.57C191.878 149.301 193.363 143.829 197.752 142.611L224.165 135.282C230.026 133.655 230.026 125.345 224.165 123.718L197.752 116.389C193.363 115.171 191.878 109.699 195.05 106.43L214.406 86.4757C218.656 82.0946 214.411 74.9046 208.522 76.5091L182.577 83.5779C178.132 84.7889 174.037 80.7462 175.191 76.2861L182.119 49.5079C183.658 43.5588 176.321 39.4166 172.023 43.8078L153.306 62.9272C150.047 66.256 144.403 64.7633 143.216 60.2587L136.302 34.0187Z" fill="#FFCB2A"/>
<path d="M141.896 84.8016C143.351 81.7674 147.942 83.3057 147.276 86.6041V86.6041C146.688 89.5144 150.381 91.2809 152.272 88.9914V88.9914C154.41 86.4019 158.424 89.1222 156.99 92.1586V92.1586C155.72 94.8468 158.85 97.5156 161.245 95.7535V95.7535C163.955 93.7593 167.288 97.2631 165.161 99.8702L164.929 100.154C163.042 102.467 165.478 105.772 168.245 104.655V104.655C171.382 103.388 173.763 107.623 171.05 109.645L170.707 109.9C168.301 111.693 169.846 115.513 172.822 115.129V115.129C176.203 114.692 177.457 119.421 174.303 120.717L173.949 120.862C171.158 122.009 171.693 126.113 174.685 126.506V126.506C178.093 126.954 177.943 131.904 174.537 132.366V132.366C171.533 132.772 170.921 136.902 173.723 138.059V138.059C176.921 139.38 175.624 144.171 172.191 143.742V143.742C169.179 143.365 167.627 147.241 170.041 149.083V149.083C172.783 151.176 170.407 155.529 167.211 154.232V154.232C164.407 153.095 161.972 156.487 163.831 158.874V158.874C165.934 161.576 162.621 165.245 159.887 163.184V163.184C157.483 161.373 154.238 163.927 155.434 166.689L155.6 167.073C156.949 170.189 152.763 172.687 150.661 170.02V170.02C148.809 167.67 145.043 169.325 145.521 172.279L145.586 172.683C146.125 176.013 141.478 177.387 140.12 174.3V174.3C138.92 171.574 134.868 172.348 134.618 175.316V175.316C134.337 178.664 129.494 179.063 128.937 175.75V175.75C128.446 172.82 124.353 172.531 123.401 175.345V175.345C122.325 178.528 117.565 177.634 117.827 174.284V174.284C118.059 171.323 114.176 170.022 112.577 172.525V172.525C110.769 175.357 106.431 173.203 107.489 170.014V170.014C108.425 167.195 104.984 164.96 102.827 167.002V167.002C100.387 169.311 96.7619 166.075 98.5541 163.233V163.233C100.143 160.714 97.3747 157.654 94.7751 159.107V159.107C91.831 160.753 88.9501 156.857 91.3858 154.524L91.6818 154.241C93.8427 152.171 91.8339 148.582 88.9397 149.341V149.341C85.6552 150.203 83.8193 145.688 86.7735 144.013L87.1373 143.807C89.7554 142.323 88.7039 138.33 85.6945 138.327V138.327C82.2708 138.325 81.8368 133.4 85.143 132.511V132.511C88.0645 131.725 88.1646 127.551 85.2419 126.77V126.77C81.909 125.879 82.6357 120.974 86.0854 120.955V120.955C89.1213 120.938 90.2181 116.91 87.5867 115.396V115.396C84.5876 113.671 86.4395 109.065 89.7877 109.938V109.938C92.7213 110.702 94.7206 107.038 92.568 104.903V104.903C90.1271 102.483 92.9899 98.4414 95.9801 100.137V100.137C98.6051 101.626 101.504 98.6723 99.9671 96.0753L99.7723 95.7462C98.0357 92.8121 101.885 89.7929 104.321 92.1786V92.1786C106.465 94.2783 110 92.1599 109.159 89.2793L109.04 88.869C108.092 85.6212 112.543 83.6748 114.284 86.5758V86.5758C115.82 89.1349 119.755 87.9643 119.642 84.9818L119.628 84.6152C119.501 81.2528 124.272 80.464 125.234 83.6884V83.6884C126.084 86.5376 130.19 86.2935 130.796 83.3828V83.3828C131.48 80.095 136.323 80.3422 136.47 83.6973V83.6973C136.599 86.6635 140.612 87.4788 141.896 84.8016V84.8016Z" fill="#99B75A"/>
</svg>
