<svg width="260" height="260" viewBox="0 0 260 260" fill="none" xmlns="http://www.w3.org/2000/svg">
<path fill-rule="evenodd" clip-rule="evenodd" d="M114.633 12.3985C118.452 -4.13283 141.993 -4.13282 145.812 12.3985L153.057 43.7599L153.061 43.7565L135.684 95.1786C133.846 100.618 126.154 100.618 124.316 95.1786L107.031 44.0287L107.267 44.2819L114.633 12.3985ZM106.863 43.848L84.6595 20.045C73.0864 7.63803 52.6997 19.4083 57.6579 35.6344L67.2863 67.1442L67.2331 67.1279L107.667 102.686C111.978 106.477 118.64 102.631 117.512 97.0016L106.863 43.848ZM66.9626 67.0453L36.2416 57.6579C20.0155 52.6997 8.24528 73.0864 20.6522 84.6595L44.2468 106.668L43.6106 106.815L97.0016 117.512C102.631 118.64 106.477 111.978 102.686 107.667L66.9626 67.0453ZM43.4791 106.846L12.3985 114.026C-4.13282 117.845 -4.13283 141.386 12.3985 145.205L44.7684 152.683L44.7086 152.739L95.1785 135.684C100.617 133.846 100.617 126.154 95.1785 124.316L43.4791 106.846ZM44.4002 153.027L20.6523 175.178C8.24529 186.752 20.0155 207.138 36.2416 202.18L67.0817 192.756L67.0522 192.853L102.686 152.333C106.477 148.022 102.631 141.36 97.0016 142.488L44.4002 153.027ZM66.9777 193.097L57.6579 223.596C52.6997 239.823 73.0864 251.593 84.6595 239.186L107.059 215.172L117.512 162.998C118.64 157.369 111.978 153.523 107.667 157.314L66.9777 193.097ZM107.229 215.388L114.633 247.439C118.452 263.971 141.993 263.971 145.812 247.439L153.036 216.171L135.684 164.821C133.846 159.382 126.154 159.382 124.316 164.821L107.229 215.388ZM153.092 215.927L153.17 215.591L175.178 239.186C186.752 251.593 207.138 239.823 202.18 223.596L192.801 192.902L152.333 157.314C148.022 153.523 141.36 157.369 142.488 162.998L153.092 215.927ZM192.699 192.571L192.694 192.552L224.204 202.18C240.43 207.138 252.2 186.751 239.793 175.178L216.167 153.14L162.998 142.488C157.369 141.36 153.523 148.022 157.314 152.333L192.699 192.571ZM215.99 152.975L215.556 152.571L247.439 145.205C263.971 141.386 263.971 117.845 247.439 114.026L216.455 106.868L164.821 124.316C159.382 126.154 159.382 133.846 164.821 135.684L215.99 152.975ZM216.303 106.833L216.078 106.781L239.793 84.6595C252.2 73.0864 240.43 52.6997 224.204 57.6579L192.874 67.2314L157.314 107.667C153.523 111.978 157.369 118.64 162.998 117.512L216.303 106.833ZM192.53 67.3366L192.489 67.3489L202.18 35.6344C207.138 19.4083 186.751 7.63803 175.178 20.045L153.181 43.6269L142.488 97.0016C141.36 102.631 148.022 106.477 152.333 102.686L192.53 67.3366Z" fill="#E2A2F6"/>
</svg>
