<svg width="362" height="84" viewBox="0 0 362 84" fill="none" xmlns="http://www.w3.org/2000/svg">
<path d="M37.8345 24.476C40.5693 21.1761 45.9168 22.6212 46.6171 26.8495L46.9136 28.6397C47.3075 31.0179 49.3422 32.7765 51.7523 32.8218L53.5666 32.856C57.8518 32.9366 60.056 38.0184 57.1869 41.2023L55.9721 42.5503C54.3583 44.341 54.252 47.0282 55.7193 48.9409L56.8238 50.3806C59.4325 53.7812 56.8337 58.673 52.5555 58.4149L50.7442 58.3056C48.338 58.1604 46.1708 59.7528 45.5902 62.0924L45.1532 63.8536C44.1211 68.0134 38.6761 69.0316 36.2106 65.5258L35.1667 64.0416C33.7799 62.0698 31.1837 61.3682 28.9926 62.373L27.3432 63.1295C23.4474 64.9161 19.2565 61.2939 20.4601 57.1804L20.9697 55.4389C21.6467 53.1253 20.5765 50.6581 18.4247 49.5715L16.8049 48.7535C12.9791 46.8216 13.1981 41.2866 17.1645 39.663L18.8439 38.9755C21.0748 38.0623 22.3365 35.6873 21.8444 33.3275L21.474 31.5511C20.5991 27.3555 25.063 24.0756 28.8055 26.1644L30.39 27.0488C32.4949 28.2236 35.1384 27.7293 36.6766 25.8732L37.8345 24.476Z" fill="#F0780A"/>
<path d="M37.8345 24.476C40.5693 21.1761 45.9168 22.6212 46.6171 26.8495L46.9136 28.6397C47.3075 31.0179 49.3422 32.7765 51.7523 32.8218L53.5666 32.856C57.8518 32.9366 60.056 38.0184 57.1869 41.2023L55.9721 42.5503C54.3583 44.341 54.252 47.0282 55.7193 48.9409L56.8238 50.3806C59.4325 53.7812 56.8337 58.673 52.5555 58.4149L50.7442 58.3056C48.338 58.1604 46.1708 59.7528 45.5902 62.0924L45.1532 63.8536C44.1211 68.0134 38.6761 69.0316 36.2106 65.5258L35.1667 64.0416C33.7799 62.0698 31.1837 61.3682 28.9926 62.373L27.3432 63.1295C23.4474 64.9161 19.2565 61.2939 20.4601 57.1804L20.9697 55.4389C21.6467 53.1253 20.5765 50.6581 18.4247 49.5715L16.8049 48.7535C12.9791 46.8216 13.1981 41.2866 17.1645 39.663L18.8439 38.9755C21.0748 38.0623 22.3365 35.6873 21.8444 33.3275L21.474 31.5511C20.5991 27.3555 25.063 24.0756 28.8055 26.1644L30.39 27.0488C32.4949 28.2236 35.1384 27.7293 36.6766 25.8732L37.8345 24.476Z" fill="#F0780A"/>
<path d="M72.7313 21.9734C74.3959 18.0239 79.9329 17.8622 81.8251 21.7078L82.6263 23.336C83.6906 25.4989 86.1466 26.5945 88.467 25.9415L90.2138 25.4499C94.3395 24.2889 97.9181 28.517 96.0913 32.3941L95.3179 34.0357C94.2904 36.2163 94.9651 38.8196 96.9224 40.2267L98.3959 41.2859C101.876 43.7876 100.801 49.2217 96.6312 50.2107L94.8656 50.6295C92.5201 51.1858 90.9054 53.3365 91.0257 55.744L91.1163 57.5564C91.3301 61.837 86.4117 64.3851 83.0383 61.7413L81.61 60.622C79.7127 59.1351 77.0245 59.2136 75.2172 60.8087L73.8567 62.0095C70.6433 64.8456 65.5846 62.5889 65.5482 58.3031L65.5329 56.4886C65.5124 54.0781 63.775 52.0253 61.401 51.6069L59.614 51.2919C55.3931 50.5478 54.0034 45.1857 57.3315 42.4852L58.7406 41.3418C60.6124 39.8229 61.134 37.1847 59.9811 35.0677L59.1131 33.4741C57.0632 29.7102 60.389 25.2805 64.5754 26.1987L66.3478 26.5875C68.7025 27.104 71.0903 25.8669 72.0266 23.6455L72.7313 21.9734Z" fill="#F8B3CC"/>
<path d="M120.829 17.9662C123.819 14.8952 129.034 16.7628 129.394 21.0335L129.547 22.8417C129.749 25.2438 131.637 27.1592 134.036 27.3969L135.842 27.5758C140.107 27.9985 141.898 33.2401 138.784 36.1846L137.465 37.4313C135.714 39.0875 135.393 41.7576 136.703 43.7813L137.689 45.3047C140.018 48.9027 137.036 53.5713 132.793 52.9724L130.996 52.7188C128.609 52.3819 126.321 53.7961 125.556 56.0819L124.98 57.8025C123.618 61.8666 118.11 62.4467 115.932 58.7552L115.01 57.1923C113.785 55.1161 111.253 54.2094 108.989 55.036L107.284 55.6583C103.258 57.1281 99.3699 53.1827 100.898 49.1786L101.545 47.4833C102.405 45.2311 101.535 42.6863 99.477 41.4313L97.9277 40.4866C94.2684 38.2553 94.9288 32.7555 99.0122 31.4539L100.741 30.9027C103.038 30.1706 104.485 27.904 104.183 25.5124L103.956 23.7121C103.419 19.4599 108.13 16.5471 111.694 18.9281L113.203 19.9362C115.207 21.2754 117.882 20.9938 119.563 19.2665L120.829 17.9662Z" fill="#EACE4D"/>
<path d="M161.829 22.9662C164.819 19.8952 170.034 21.7628 170.394 26.0335L170.547 27.8417C170.749 30.2438 172.637 32.1592 175.036 32.3969L176.842 32.5758C181.107 32.9985 182.898 38.2401 179.784 41.1846L178.465 42.4313C176.714 44.0875 176.393 46.7576 177.703 48.7813L178.689 50.3047C181.018 53.9027 178.036 58.5713 173.793 57.9724L171.996 57.7188C169.609 57.3819 167.321 58.7961 166.556 61.0819L165.98 62.8025C164.618 66.8666 159.11 67.4467 156.932 63.7552L156.01 62.1923C154.785 60.1161 152.253 59.2094 149.989 60.036L148.284 60.6583C144.258 62.1281 140.37 58.1827 141.898 54.1786L142.545 52.4833C143.405 50.2311 142.535 47.6863 140.477 46.4313L138.928 45.4866C135.268 43.2553 135.929 37.7555 140.012 36.4539L141.741 35.9027C144.038 35.1706 145.485 32.904 145.183 30.5124L144.956 28.7121C144.419 24.4599 149.13 21.5471 152.694 23.9281L154.203 24.9362C156.207 26.2754 158.882 25.9938 160.563 24.2665L161.829 22.9662Z" fill="#FFAB2D"/>
<path d="M202.055 25.9651C204.745 22.6284 210.112 24.0011 210.869 28.2196L211.19 30.0056C211.616 32.3783 213.674 34.1092 216.085 34.1219L217.899 34.1315C222.185 34.1542 224.458 39.2058 221.632 42.4281L220.436 43.7925C218.846 45.6049 218.776 48.2933 220.269 50.1859L221.393 51.6105C224.048 54.9755 221.515 59.902 217.234 59.7018L215.421 59.617C213.013 59.5044 210.868 61.1259 210.319 63.4731L209.906 65.2401C208.93 69.4135 203.499 70.5052 200.987 67.0331L199.923 65.5631C198.51 63.6102 195.904 62.9438 193.727 63.9782L192.088 64.7569C188.216 66.596 183.977 63.0308 185.125 58.9014L185.611 57.1531C186.256 54.8306 185.153 52.3781 182.987 51.3207L181.356 50.5247C177.504 48.6447 177.649 43.1073 181.593 41.4301L183.263 40.72C185.481 39.7767 186.71 37.3849 186.187 35.032L185.792 33.2608C184.861 29.0773 189.28 25.7374 193.05 27.7754L194.646 28.6383C196.767 29.7845 199.404 29.2545 200.917 27.3778L202.055 25.9651Z" fill="#F6A2DD"/>
<path d="M244.055 26.9651C246.745 23.6284 252.112 25.0011 252.869 29.2196L253.19 31.0056C253.616 33.3783 255.674 35.1092 258.085 35.1219L259.899 35.1315C264.185 35.1542 266.458 40.2058 263.632 43.4281L262.436 44.7925C260.846 46.6049 260.776 49.2933 262.269 51.1859L263.393 52.6105C266.048 55.9755 263.515 60.902 259.234 60.7018L257.421 60.617C255.013 60.5044 252.868 62.1259 252.319 64.4731L251.906 66.2401C250.93 70.4135 245.499 71.5052 242.987 68.0331L241.923 66.5631C240.51 64.6102 237.904 63.9438 235.727 64.9782L234.088 65.7569C230.216 67.596 225.977 64.0308 227.125 59.9014L227.611 58.1531C228.256 55.8306 227.153 53.3781 224.987 52.3207L223.356 51.5247C219.504 49.6447 219.649 44.1073 223.593 42.4301L225.263 41.72C227.481 40.7767 228.71 38.3849 228.187 36.032L227.792 34.2608C226.861 30.0773 231.28 26.7374 235.05 28.7754L236.646 29.6383C238.767 30.7845 241.404 30.2545 242.917 28.3778L244.055 26.9651Z" fill="#FFCB2A"/>
<path d="M284.192 26.9992C286.568 23.4324 292.037 24.3129 293.174 28.4453L293.655 30.1949C294.294 32.5192 296.501 34.0563 298.903 33.8505L300.711 33.6956C304.981 33.3296 307.702 38.1543 305.18 41.6196L304.112 43.0868C302.694 45.0358 302.868 47.7195 304.526 49.4689L305.775 50.7858C308.723 53.8963 306.648 59.0321 302.366 59.2208L300.553 59.3007C298.145 59.4069 296.155 61.2162 295.822 63.6036L295.57 65.4007C294.977 69.6454 289.668 71.2249 286.85 67.995L285.658 66.6274C284.073 64.8108 281.418 64.3833 279.343 65.6108L277.782 66.5349C274.093 68.7174 269.548 65.5512 270.317 61.3348L270.642 59.5497C271.075 57.1782 269.753 54.8358 267.5 53.9791L265.804 53.3343C261.798 51.8112 261.439 46.2835 265.215 44.2557L266.814 43.3971C268.937 42.2566 269.945 39.7632 269.21 37.4674L268.657 35.7393C267.35 31.6575 271.448 27.9307 275.387 29.6185L277.055 30.3331C279.271 31.2823 281.849 30.5155 283.185 28.5093L284.192 26.9992Z" fill="#A2ABF6"/>
<path d="M326.08 23.8879C328.457 20.3211 333.925 21.2016 335.062 25.334L335.544 27.0836C336.183 29.4078 338.39 30.945 340.791 30.7392L342.599 30.5842C346.87 30.2183 349.591 35.043 347.069 38.5083L346.001 39.9754C344.583 41.9245 344.757 44.6081 346.415 46.3576L347.663 47.6745C350.612 50.785 348.537 55.9208 344.255 56.1095L342.442 56.1894C340.034 56.2956 338.044 58.1049 337.71 60.4923L337.459 62.2894C336.866 66.534 331.556 68.1136 328.739 64.8836L327.546 63.5161C325.962 61.6994 323.307 61.272 321.232 62.4995L319.67 63.4236C315.982 65.6061 311.437 62.4399 312.205 58.2235L312.531 56.4383C312.963 54.0668 311.642 51.7245 309.389 50.8678L307.693 50.223C303.687 48.6999 303.328 43.1722 307.104 41.1444L308.703 40.2858C310.826 39.1453 311.834 36.6519 311.099 34.3561L310.545 32.6279C309.238 28.5461 313.336 24.8194 317.276 26.5072L318.944 27.2217C321.16 28.171 323.738 27.4041 325.074 25.398L326.08 23.8879Z" fill="#E2A2F6"/>
</svg>
