<svg width="291" height="291" viewBox="0 0 291 291" fill="none" xmlns="http://www.w3.org/2000/svg">
<path d="M0.392211 110.975C4.66662 75.1403 77.9595 123.181 104.723 144.695C78.0774 121.726 17.965 60.7643 51.4488 46.5198C69.9184 38.6626 102.552 76.8072 117.594 114.909C107.761 71.8218 105.755 -5.60481 144.462 0.929184C184.029 7.60834 155.574 89.8746 142.981 128.988C158.24 95.3221 214.983 31.9221 232.194 52.6555C252.567 77.1979 177.848 140.904 151.683 148.696C180.264 142.874 281.635 100.715 289.737 124.486C302.793 162.788 195.266 160.479 150.809 159.922C190.825 165.062 251.837 215.155 249.301 227.4C239.375 275.338 169.874 202.489 145.855 169.832C166.918 205.149 201.076 291.154 165.157 290.419C125.1 289.599 120.567 192.508 127.33 162.827C120.319 193.594 112.022 297.163 83.2749 287.964C55.2105 278.983 92.9935 200.968 111.879 176.857C91.1899 201.715 24.6004 251.171 10.6956 222.08C-5.85987 187.443 38.0802 153.534 92.5155 154.82C56.818 151.099 -2.61896 136.219 0.392211 110.975Z" fill="#fe75b9"/>
</svg>
