<svg width="229" height="232" viewBox="0 0 229 232" fill="none" xmlns="http://www.w3.org/2000/svg">
<path d="M13.1731 54.5719C25.5666 20.678 66.5229 73.0426 87.6278 100.13C66.9719 71.6535 22.7669 11.3001 58.6278 5.13001C78.9987 1.62508 99.7949 58.7533 104.933 92.1063C103.998 54.4911 121.605 -9.26393 149.925 1.12998C177.286 11.1723 134.691 63.565 112.698 95.3878C136.238 68.2643 197.073 31.3089 208.628 54.5719C221.359 80.2039 153.055 104.476 119.32 107.868C153.391 107.049 225.968 98.8579 228.128 121.13C231.708 158.043 161.87 129.634 119.952 114.827C153.197 131.649 185.914 174.357 181.128 184.63C162.063 225.548 123.432 164.657 106.331 127.664C120.591 167.875 138.452 239.13 106.128 230.797C67.3307 220.796 85.2263 146.463 98.6278 119.13C84.736 147.463 64.4925 218.188 38.6278 202.63C14.6308 188.196 63.6531 139.973 89.1478 119.402C62.2533 139.877 7.57164 174.871 1.04895 144.863C-6.73481 109.054 29.7915 95.9192 77.7446 107.996C45.9018 96.9525 5.05675 76.7685 13.1731 54.5719Z" fill="#FC972F"/>
</svg>
